<svg width="15" height="14" viewBox="0 0 15 14" fill="none" xmlns="http://www.w3.org/2000/svg">
<path d="M8.5039 7.37984C8.21268 7.69021 7.96848 8.04154 7.77905 8.42266L12.9234 13.567C13.0406 13.6842 13.1996 13.75 13.3653 13.75C13.531 13.75 13.69 13.6842 13.8072 13.567L14.6911 12.6831C14.7491 12.6251 14.7952 12.5562 14.8266 12.4804C14.858 12.4045 14.8742 12.3233 14.8742 12.2412C14.8742 12.1591 14.858 12.0778 14.8266 12.002C14.7952 11.9262 14.7491 11.8573 14.6911 11.7992L9.54671 6.65625C9.16492 6.84402 8.81341 7.08792 8.5039 7.37984Z" fill="#333333"/>
<path d="M5.4103 4.28625C4.93766 4.72487 4.39055 5.07562 3.79468 5.32203L7.02499 8.55233C7.2736 7.95749 7.62471 7.41092 8.06233 6.93749C8.53502 6.49889 9.08212 6.14809 9.67796 5.90156L6.44749 2.67188C6.19879 3.26649 5.84775 3.81289 5.4103 4.28625Z" fill="#333333"/>
<path d="M7.61908 0.309751L6.73533 1.1935C6.49129 1.43754 6.49129 1.83321 6.73533 2.07725L10.2703 5.61225C10.5144 5.85629 10.91 5.85629 11.1541 5.61225L12.0378 4.7285C12.2819 4.48446 12.2819 4.08879 12.0378 3.84475L8.50283 0.309751C8.25879 0.06571 7.86312 0.06571 7.61908 0.309751Z" fill="#333333"/>
<path d="M2.31586 5.61187L1.43211 6.49562C1.18807 6.73967 1.18807 7.13533 1.43211 7.37938L4.96711 10.9144C5.21115 11.1584 5.60682 11.1584 5.85086 10.9144L6.73461 10.0306C6.97865 9.78659 6.97865 9.39092 6.73461 9.14688L3.19961 5.61187C2.95557 5.36783 2.5599 5.36783 2.31586 5.61187Z" fill="#333333"/>
</svg>
