<svg width="87" height="24" viewBox="0 0 87 24" fill="none" xmlns="http://www.w3.org/2000/svg">
<path d="M4.56 19.544H12.144V23H0.0480001V0.407999H4.56V19.544ZM25.4213 0.0879993C27.5333 0.0879993 29.4426 0.578666 31.1493 1.56C32.8773 2.54133 34.2319 3.91733 35.2133 5.688C36.2159 7.43733 36.7173 9.42133 36.7173 11.64C36.7173 13.8587 36.2159 15.8533 35.2133 17.624C34.2319 19.3947 32.8773 20.7707 31.1493 21.752C29.4426 22.7333 27.5333 23.224 25.4213 23.224C23.3093 23.224 21.3893 22.7333 19.6613 21.752C17.9546 20.7707 16.5999 19.3947 15.5973 17.624C14.6159 15.8533 14.1253 13.8587 14.1253 11.64C14.1253 9.42133 14.6159 7.43733 15.5973 5.688C16.5999 3.91733 17.9546 2.54133 19.6613 1.56C21.3893 0.578666 23.3093 0.0879993 25.4213 0.0879993ZM25.4213 4.248C24.0986 4.248 22.9359 4.54667 21.9333 5.144C20.9306 5.74133 20.1413 6.60533 19.5653 7.736C19.0106 8.84533 18.7333 10.1467 18.7333 11.64C18.7333 13.1333 19.0106 14.4453 19.5653 15.576C20.1413 16.6853 20.9306 17.5387 21.9333 18.136C22.9359 18.7333 24.0986 19.032 25.4213 19.032C26.7439 19.032 27.9066 18.7333 28.9093 18.136C29.9119 17.5387 30.6906 16.6853 31.2453 15.576C31.8213 14.4453 32.1093 13.1333 32.1093 11.64C32.1093 10.1467 31.8213 8.84533 31.2453 7.736C30.6906 6.60533 29.9119 5.74133 28.9093 5.144C27.9066 4.54667 26.7439 4.248 25.4213 4.248ZM50.5745 0.183998C53.3265 0.183998 55.6092 0.866665 57.4225 2.232C59.2358 3.576 60.3985 5.4 60.9105 7.704H56.1745C55.7265 6.68 55.0118 5.86933 54.0305 5.272C53.0705 4.65333 51.9292 4.344 50.6065 4.344C49.3052 4.344 48.1532 4.64267 47.1505 5.24C46.1478 5.83733 45.3692 6.69067 44.8145 7.8C44.2598 8.90933 43.9825 10.2107 43.9825 11.704C43.9825 14.072 44.6118 15.9173 45.8705 17.24C47.1505 18.5627 48.8892 19.224 51.0865 19.224C52.7078 19.224 54.0945 18.744 55.2465 17.784C56.4198 16.824 57.1772 15.4907 57.5185 13.784H49.8705V10.552H61.2945V14.904C60.9745 16.3973 60.3452 17.7733 59.4065 19.032C58.4892 20.2907 57.2732 21.304 55.7585 22.072C54.2652 22.8187 52.5478 23.192 50.6065 23.192C48.3878 23.192 46.4252 22.712 44.7185 21.752C43.0332 20.7707 41.7212 19.416 40.7825 17.688C39.8652 15.9387 39.4065 13.944 39.4065 11.704C39.4065 9.464 39.8652 7.48 40.7825 5.752C41.7212 4.00267 43.0332 2.63733 44.7185 1.656C46.4038 0.674665 48.3558 0.183998 50.5745 0.183998ZM75.265 0.0879993C77.377 0.0879993 79.2863 0.578666 80.993 1.56C82.721 2.54133 84.0757 3.91733 85.057 5.688C86.0597 7.43733 86.561 9.42133 86.561 11.64C86.561 13.8587 86.0597 15.8533 85.057 17.624C84.0757 19.3947 82.721 20.7707 80.993 21.752C79.2863 22.7333 77.377 23.224 75.265 23.224C73.153 23.224 71.233 22.7333 69.505 21.752C67.7983 20.7707 66.4437 19.3947 65.441 17.624C64.4597 15.8533 63.969 13.8587 63.969 11.64C63.969 9.42133 64.4597 7.43733 65.441 5.688C66.4437 3.91733 67.7983 2.54133 69.505 1.56C71.233 0.578666 73.153 0.0879993 75.265 0.0879993ZM75.265 4.248C73.9423 4.248 72.7797 4.54667 71.777 5.144C70.7743 5.74133 69.985 6.60533 69.409 7.736C68.8543 8.84533 68.577 10.1467 68.577 11.64C68.577 13.1333 68.8543 14.4453 69.409 15.576C69.985 16.6853 70.7743 17.5387 71.777 18.136C72.7797 18.7333 73.9423 19.032 75.265 19.032C76.5877 19.032 77.7503 18.7333 78.753 18.136C79.7557 17.5387 80.5343 16.6853 81.089 15.576C81.665 14.4453 81.953 13.1333 81.953 11.64C81.953 10.1467 81.665 8.84533 81.089 7.736C80.5343 6.60533 79.7557 5.74133 78.753 5.144C77.7503 4.54667 76.5877 4.248 75.265 4.248Z" fill="white"/>
</svg>
