<svg width="19" height="18" viewBox="0 0 19 18" fill="none" xmlns="http://www.w3.org/2000/svg">
<path fill-rule="evenodd" clip-rule="evenodd" d="M9.81501 0C7.34327 0 7.03334 0.0103604 6.06261 0.0541599C5.0939 0.0978523 4.43231 0.250007 3.85341 0.472506C3.25493 0.702472 2.74738 1.01021 2.24139 1.51055C1.73543 2.01092 1.42423 2.51283 1.19168 3.10466C0.966684 3.67712 0.812819 4.33137 0.768636 5.28931C0.724344 6.24926 0.713867 6.55575 0.713867 9.00002C0.713867 11.4443 0.724344 11.7507 0.768636 12.7107C0.812819 13.6686 0.966684 14.3229 1.19168 14.8953C1.42423 15.4872 1.73543 15.9891 2.24139 16.4895C2.74738 16.9898 3.25493 17.2975 3.85341 17.5275C4.43231 17.75 5.0939 17.9021 6.06261 17.9458C7.03334 17.9896 7.34327 18 9.81501 18C12.2867 18 12.5966 17.9896 13.5674 17.9458C14.5361 17.9021 15.1977 17.75 15.7766 17.5275C16.3751 17.2975 16.8826 16.9898 17.3886 16.4895C17.8946 15.9891 18.2057 15.4872 18.4383 14.8953C18.6633 14.3229 18.8172 13.6686 18.8613 12.7107C18.9056 11.7507 18.9161 11.4443 18.9161 9.00002C18.9161 6.55575 18.9056 6.24926 18.8613 5.28931C18.8172 4.33137 18.6633 3.67712 18.4383 3.10466C18.2057 2.51283 17.8946 2.01092 17.3886 1.51055C16.8826 1.01021 16.3751 0.702472 15.7766 0.472506C15.1977 0.250007 14.5361 0.0978523 13.5674 0.0541599C12.5966 0.0103604 12.2867 0 9.81501 0ZM9.81484 1.62171C12.2449 1.62171 12.5328 1.63089 13.4925 1.67419C14.3798 1.7142 14.8617 1.86082 15.1824 1.98407C15.6072 2.14734 15.9104 2.34236 16.2289 2.65732C16.5474 2.97224 16.7446 3.27205 16.9097 3.69214C17.0343 4.00928 17.1826 4.48582 17.223 5.36331C17.2668 6.31233 17.2761 6.59699 17.2761 9.0001C17.2761 11.4032 17.2668 11.6878 17.223 12.6369C17.1826 13.5143 17.0343 13.9909 16.9097 14.308C16.7446 14.7281 16.5474 15.0279 16.2289 15.3429C15.9104 15.6578 15.6072 15.8528 15.1824 16.0161C14.8617 16.1394 14.3798 16.286 13.4925 16.326C12.5329 16.3693 12.2451 16.3785 9.81484 16.3785C7.38455 16.3785 7.09676 16.3693 6.13719 16.326C5.24984 16.286 4.76794 16.1394 4.44724 16.0161C4.02243 15.8528 3.71925 15.6578 3.40079 15.3429C3.08233 15.0279 2.88508 14.7281 2.71998 14.308C2.59534 13.9909 2.44707 13.5143 2.40661 12.6369C2.36283 11.6878 2.35354 11.4032 2.35354 9.0001C2.35354 6.59699 2.36283 6.31233 2.40661 5.36331C2.44707 4.48582 2.59534 4.00928 2.71998 3.69214C2.88508 3.27205 3.08229 2.97224 3.40079 2.65732C3.71925 2.34236 4.02243 2.14734 4.44724 1.98407C4.76794 1.86082 5.24984 1.7142 6.13719 1.67419C7.09687 1.63089 7.38473 1.62171 9.81484 1.62171Z" fill="white"/>
<path fill-rule="evenodd" clip-rule="evenodd" d="M9.79239 12.0265C8.11463 12.0265 6.75456 10.6816 6.75456 9.0225C6.75456 7.36338 8.11463 6.01843 9.79239 6.01843C11.4701 6.01843 12.8302 7.36338 12.8302 9.0225C12.8302 10.6816 11.4701 12.0265 9.79239 12.0265ZM9.79219 4.39453C7.20753 4.39453 5.1123 6.46648 5.1123 9.02241C5.1123 11.5783 7.20753 13.6503 9.79219 13.6503C12.3768 13.6503 14.472 11.5783 14.472 9.02241C14.472 6.46648 12.3768 4.39453 9.79219 4.39453Z" fill="white"/>
<path fill-rule="evenodd" clip-rule="evenodd" d="M15.7505 4.21781C15.7505 4.81838 15.2582 5.30521 14.6509 5.30521C14.0436 5.30521 13.5513 4.81838 13.5513 4.21781C13.5513 3.61724 14.0436 3.13037 14.6509 3.13037C15.2582 3.13037 15.7505 3.61724 15.7505 4.21781Z" fill="white"/>
</svg>
