<svg width="71" height="31" viewBox="0 0 71 31" fill="none" xmlns="http://www.w3.org/2000/svg">
<path d="M5.15 18.76H12.26V22H0.92V0.819999H5.15V18.76ZM22.4574 5.17C24.0774 5.17 25.5274 5.51 26.8074 6.19C28.1074 6.87 29.1274 7.86 29.8674 9.16C30.6074 10.44 30.9774 11.95 30.9774 13.69C30.9774 15.43 30.6074 16.94 29.8674 18.22C29.1274 19.5 28.1074 20.49 26.8074 21.19C25.5274 21.87 24.0774 22.21 22.4574 22.21C20.8374 22.21 19.3774 21.87 18.0774 21.19C16.7974 20.49 15.7874 19.5 15.0474 18.22C14.3074 16.94 13.9374 15.43 13.9374 13.69C13.9374 11.95 14.3074 10.44 15.0474 9.16C15.7874 7.86 16.7974 6.87 18.0774 6.19C19.3774 5.51 20.8374 5.17 22.4574 5.17ZM22.4574 8.83C21.2774 8.83 20.2774 9.25 19.4574 10.09C18.6374 10.91 18.2274 12.11 18.2274 13.69C18.2274 15.27 18.6374 16.48 19.4574 17.32C20.2774 18.14 21.2774 18.55 22.4574 18.55C23.6374 18.55 24.6374 18.14 25.4574 17.32C26.2774 16.48 26.6874 15.27 26.6874 13.69C26.6874 12.11 26.2774 10.91 25.4574 10.09C24.6374 9.25 23.6374 8.83 22.4574 8.83ZM40.4769 5.17C41.8769 5.17 43.0769 5.5 44.0769 6.16C45.0769 6.82 45.7869 7.71 46.2069 8.83V5.38H50.4069V22.06C50.4069 23.6 50.0969 24.98 49.4769 26.2C48.8769 27.44 47.9669 28.41 46.7469 29.11C45.5469 29.81 44.0869 30.16 42.3669 30.16C39.9669 30.16 38.0269 29.59 36.5469 28.45C35.0669 27.31 34.1669 25.76 33.8469 23.8H38.0169C38.2569 24.64 38.7169 25.29 39.3969 25.75C40.0969 26.23 40.9869 26.47 42.0669 26.47C43.3069 26.47 44.3069 26.1 45.0669 25.36C45.8269 24.64 46.2069 23.54 46.2069 22.06V18.52C45.7869 19.64 45.0769 20.54 44.0769 21.22C43.0769 21.88 41.8769 22.21 40.4769 22.21C39.0769 22.21 37.8169 21.87 36.6969 21.19C35.5769 20.51 34.6969 19.53 34.0569 18.25C33.4369 16.95 33.1269 15.43 33.1269 13.69C33.1269 11.95 33.4369 10.44 34.0569 9.16C34.6969 7.86 35.5769 6.87 36.6969 6.19C37.8169 5.51 39.0769 5.17 40.4769 5.17ZM41.7969 8.86C40.4769 8.86 39.4169 9.29 38.6169 10.15C37.8169 11.01 37.4169 12.19 37.4169 13.69C37.4169 15.19 37.8169 16.37 38.6169 17.23C39.4169 18.07 40.4769 18.49 41.7969 18.49C43.0769 18.49 44.1269 18.06 44.9469 17.2C45.7869 16.32 46.2069 15.15 46.2069 13.69C46.2069 12.21 45.7869 11.04 44.9469 10.18C44.1269 9.3 43.0769 8.86 41.7969 8.86ZM61.9203 5.17C63.5403 5.17 64.9903 5.51 66.2703 6.19C67.5703 6.87 68.5903 7.86 69.3303 9.16C70.0703 10.44 70.4403 11.95 70.4403 13.69C70.4403 15.43 70.0703 16.94 69.3303 18.22C68.5903 19.5 67.5703 20.49 66.2703 21.19C64.9903 21.87 63.5403 22.21 61.9203 22.21C60.3003 22.21 58.8403 21.87 57.5403 21.19C56.2603 20.49 55.2503 19.5 54.5103 18.22C53.7703 16.94 53.4003 15.43 53.4003 13.69C53.4003 11.95 53.7703 10.44 54.5103 9.16C55.2503 7.86 56.2603 6.87 57.5403 6.19C58.8403 5.51 60.3003 5.17 61.9203 5.17ZM61.9203 8.83C60.7403 8.83 59.7403 9.25 58.9203 10.09C58.1003 10.91 57.6903 12.11 57.6903 13.69C57.6903 15.27 58.1003 16.48 58.9203 17.32C59.7403 18.14 60.7403 18.55 61.9203 18.55C63.1003 18.55 64.1003 18.14 64.9203 17.32C65.7403 16.48 66.1503 15.27 66.1503 13.69C66.1503 12.11 65.7403 10.91 64.9203 10.09C64.1003 9.25 63.1003 8.83 61.9203 8.83Z" fill="black"/>
</svg>
