<svg width="23" height="18" viewBox="0 0 23 18" fill="none" xmlns="http://www.w3.org/2000/svg">
<path fill-rule="evenodd" clip-rule="evenodd" d="M7.70904 18C15.8604 18 20.3179 11.0755 20.3179 5.0712C20.3179 4.87443 20.314 4.67856 20.3052 4.48374C21.1704 3.84242 21.9226 3.04217 22.516 2.131C21.7219 2.49263 20.8674 2.73644 19.971 2.84629C20.886 2.28391 21.5884 1.39373 21.9197 0.332753C21.0633 0.853232 20.1152 1.23179 19.1058 1.43564C18.2972 0.552461 17.1455 0 15.8711 0C13.4235 0 11.4388 2.03505 11.4388 4.54372C11.4388 4.90039 11.4778 5.24705 11.5538 5.57981C7.87078 5.38995 4.60486 3.5817 2.41938 0.832236C2.03844 1.50359 1.81924 2.28391 1.81924 3.11606C1.81924 4.69264 2.60159 6.08434 3.79123 6.8985C3.06444 6.87556 2.38145 6.67073 1.78416 6.33001C1.78313 6.34897 1.78313 6.36801 1.78313 6.38795C1.78313 8.58893 3.31094 10.4262 5.33849 10.8428C4.96636 10.9466 4.57462 11.0026 4.17027 11.0026C3.88481 11.0026 3.60712 10.9737 3.3372 10.9207C3.90139 12.726 5.53729 14.0397 7.47715 14.0768C5.96013 15.2955 4.04948 16.0218 1.97321 16.0218C1.6156 16.0218 1.26291 16.0009 0.916016 15.9589C2.87738 17.2477 5.20604 18 7.70904 18Z" fill="white"/>
</svg>
