<svg width="26" height="18" viewBox="0 0 26 18" fill="none" xmlns="http://www.w3.org/2000/svg">
<path fill-rule="evenodd" clip-rule="evenodd" d="M22.9034 0.537418C24.0098 0.833114 24.881 1.70454 25.1767 2.81091C25.7141 4.81623 25.7141 9 25.7141 9C25.7141 9 25.7141 13.184 25.1767 15.1893C24.881 16.2957 24.0098 17.1669 22.9034 17.4626C20.8981 18 12.8572 18 12.8572 18C12.8572 18 4.81602 18 2.8107 17.4626C1.70433 17.1669 0.833114 16.2957 0.537206 15.1893C0 13.184 0 9 0 9C0 9 0 4.81623 0.537206 2.81091C0.833114 1.70454 1.70433 0.833114 2.8107 0.537418C4.81602 0 12.8572 0 12.8572 0C12.8572 0 20.8981 0 22.9034 0.537418ZM16.9659 9.00031L10.2856 12.8573V5.14314L16.9659 9.00031Z" fill="white"/>
</svg>
